<svg version="1.1" id="Layer_1" xmlns="http://www.w3.org/2000/svg" xmlns:xlink="http://www.w3.org/1999/xlink" x="0px" y="0px"
	 width="100%" viewBox="0 0 300 300" enable-background="new 0 0 300 300" xml:space="preserve">
<path fill="#FEFFFF" opacity="1.000000" stroke="none" 
	d="
M175.000000,301.000000 
	C159.645767,301.000000 144.291550,301.000000 128.746765,300.762390 
	C128.101212,300.006866 127.646179,299.488953 127.120651,298.508942 
	C126.977600,284.699615 126.905037,271.352356 126.906586,257.541260 
	C126.931404,247.052887 126.882111,237.028336 126.906334,226.540070 
	C126.930794,216.052094 126.881737,206.027863 126.903656,195.569168 
	C125.684128,194.421875 124.402519,193.109695 123.101730,193.090378 
	C112.019470,192.925873 100.933723,192.996231 89.166916,192.996231 
	C89.166916,183.621613 89.166916,174.838104 89.327133,165.679138 
	C89.487350,160.695084 89.487350,156.086441 89.487350,150.933777 
	C102.285461,150.933777 114.497620,150.933777 126.833122,150.933777 
	C126.833122,144.922638 126.833122,139.462677 126.904755,133.538788 
	C127.270729,123.717941 127.565056,114.361023 127.985703,104.631516 
	C130.857986,91.865173 135.565598,80.547737 146.004013,72.113564 
	C153.648987,66.350136 161.853851,62.603149 170.990265,60.942471 
	C186.084763,58.198830 201.066040,60.241257 216.013977,62.259441 
	C217.104797,62.406719 217.900635,64.738808 218.737518,66.512054 
	C218.707794,74.977333 218.774139,82.985680 218.740509,91.437973 
	C218.640549,94.783905 218.640549,97.685905 218.640549,100.832336 
	C213.984909,100.832336 210.190033,100.810471 206.395538,100.838364 
	C202.427155,100.867531 198.447723,100.772202 194.493088,101.033340 
	C183.178558,101.780449 176.984528,108.211784 176.864578,119.454224 
	C176.777283,128.957550 176.806488,138.006134 176.733917,147.498184 
	C176.123169,150.960693 177.988373,151.043015 180.217804,151.021347 
	C187.549988,150.950104 194.883301,150.994949 202.216171,150.995102 
	C206.780472,150.995193 211.344772,150.995102 216.064926,150.995102 
	C214.934204,159.167572 213.909988,166.570129 212.670288,174.289001 
	C211.516235,180.677979 210.577682,186.750641 209.196121,192.879059 
	C198.136719,192.934830 187.520294,192.934830 176.839890,192.934830 
	C176.839890,202.061478 176.839890,210.528778 176.729553,219.454437 
	C176.692871,228.273666 176.766510,236.634537 176.728180,245.453461 
	C176.690872,253.939133 176.765533,261.966705 176.725342,270.451935 
	C176.591888,272.717010 176.648880,274.528961 176.541779,276.331146 
	C176.053040,284.555573 175.518250,292.777313 175.000000,301.000000 
z"/>
<path fill="#000000" opacity="1.000000" stroke="none" 
	d="
M175.000000,0.999999 
	C216.926971,1.000000 258.853943,1.000000 301.000000,1.000000 
	C301.000000,42.687305 301.000000,84.374992 300.627136,126.766014 
	C299.447235,124.644936 298.640167,121.820526 297.891510,118.598129 
	C297.632019,116.952370 297.412720,115.669250 296.980194,114.462555 
	C294.048615,106.283981 291.072021,98.121529 288.054230,89.587502 
	C283.369354,81.132462 278.740265,73.043785 273.967102,64.638885 
	C267.587311,57.201263 261.351593,50.079865 254.977997,42.648804 
	C251.548538,39.379555 248.490509,36.093342 244.912140,33.534882 
	C239.157990,29.420761 233.060104,25.787386 226.959045,21.627544 
	C222.825195,19.186922 218.907120,16.929321 214.841766,14.978583 
	C202.513824,9.063079 189.731537,4.559237 176.067596,2.863625 
	C175.641220,2.810713 175.352768,1.646255 175.000000,0.999999 
z"/>
<path fill="#000000" opacity="1.000000" stroke="none" 
	d="
M0.999999,126.000000 
	C1.000000,84.406364 1.000000,42.812733 1.000000,1.000000 
	C42.353970,1.000000 83.708328,1.000000 125.813957,1.359318 
	C125.898384,2.135375 125.273766,2.815711 124.558510,2.930322 
	C106.370033,5.844779 89.601387,12.515551 73.552559,22.099192 
	C64.451920,29.145485 55.668056,36.052044 46.577843,43.085541 
	C43.688572,45.797832 40.796940,48.145588 38.586426,51.017586 
	C33.853786,57.166454 29.473225,63.586311 24.627441,70.038239 
	C17.066618,80.940430 11.590297,92.532326 7.549900,105.156998 
	C5.830650,110.895660 4.510673,116.454964 3.013955,121.966255 
	C2.627772,123.388275 1.686357,124.659500 0.999999,126.000000 
z"/>
<path fill="#000000" opacity="1.000000" stroke="none" 
	d="
M301.000000,176.000000 
	C301.000000,217.592743 301.000000,259.185486 301.000000,301.000000 
	C260.646057,301.000000 220.291687,301.000000 179.273254,300.621948 
	C179.270813,299.834290 179.886551,299.188934 180.600845,299.049866 
	C195.245300,296.199097 209.116318,291.105164 222.093964,283.862885 
	C228.721588,280.164276 234.750137,275.392212 241.399017,271.051025 
	C249.848007,263.381348 257.947449,255.766022 266.359924,247.994492 
	C267.397430,246.773605 268.143890,245.723145 268.842865,244.641983 
	C273.915253,236.795944 278.978088,228.943710 284.358337,220.910095 
	C285.564392,218.860123 286.612488,217.050690 287.319580,215.116592 
	C289.885773,208.097580 292.337616,201.036774 295.007202,193.646088 
	C296.472748,187.572525 297.763672,181.844589 299.414673,175.973343 
	C300.183197,175.886703 300.591583,175.943344 301.000000,176.000000 
z"/>
<path fill="#000000" opacity="1.000000" stroke="none" 
	d="
M123.000000,301.000000 
	C82.405479,301.000000 41.810959,301.000000 1.000000,301.000000 
	C1.000000,259.646027 1.000000,218.291672 1.385757,176.266724 
	C2.178081,176.423874 2.734908,177.211685 2.967154,178.085739 
	C4.643839,184.395828 6.254840,190.723373 7.932451,197.435211 
	C12.374342,207.547943 16.770435,217.270874 21.199245,227.339630 
	C28.411936,239.297150 36.451706,250.205063 47.080963,259.407227 
	C57.169224,270.090179 68.943619,278.013580 81.508469,284.792267 
	C93.874329,291.463623 107.138847,295.759735 120.760239,299.047729 
	C121.614159,299.253845 122.258270,300.329102 123.000000,301.000000 
z"/>
<path fill="#0F8FF2" opacity="1.000000" stroke="none" 
	d="
M0.999999,126.444168 
	C1.686357,124.659500 2.627772,123.388275 3.013955,121.966255 
	C4.510673,116.454964 5.830650,110.895660 8.026150,105.169060 
	C48.510372,104.990616 88.184883,104.997360 127.859390,105.004105 
	C127.565056,114.361023 127.270729,123.717941 126.447197,133.537949 
	C84.278664,134.000687 42.639332,134.000336 1.000000,134.000000 
	C1.000000,131.629440 1.000000,129.258896 0.999999,126.444168 
z"/>
<path fill="#0D88EF" opacity="1.000000" stroke="none" 
	d="
M1.000000,134.468658 
	C42.639332,134.000336 84.278664,134.000687 126.375565,134.001862 
	C126.833122,139.462677 126.833122,144.922638 126.833122,150.933777 
	C114.497620,150.933777 102.285461,150.933777 89.487350,150.933777 
	C89.487350,156.086441 89.487350,160.695084 88.847122,165.662567 
	C62.795918,166.014282 37.384434,165.927261 11.974530,166.089157 
	C8.312444,166.112488 4.657987,167.333328 1.000000,168.000000 
	C1.000000,156.979111 1.000000,145.958206 1.000000,134.468658 
z"/>
<path fill="#0E8CF1" opacity="1.000000" stroke="none" 
	d="
M297.833069,118.996124 
	C298.640167,121.820526 299.447235,124.644936 300.627136,127.234673 
	C301.000000,133.354401 301.000000,139.708786 300.531342,146.531601 
	C258.987030,147.018250 217.911346,147.036484 176.835678,147.054718 
	C176.806488,138.006134 176.777283,128.957550 177.334595,119.454391 
	C217.891769,118.998581 257.862427,118.997353 297.833069,118.996124 
z"/>
<path fill="#097FEC" opacity="1.000000" stroke="none" 
	d="
M1.000000,168.444168 
	C4.657987,167.333328 8.312444,166.112488 11.974530,166.089157 
	C37.384434,165.927261 62.795918,166.014282 88.686905,166.037994 
	C89.166916,174.838104 89.166916,183.621613 89.166916,192.996231 
	C100.933723,192.996231 112.019470,192.925873 123.101730,193.090378 
	C124.402519,193.109695 125.684128,194.421875 126.446045,195.568039 
	C91.513618,196.000916 57.109669,195.958893 22.706051,196.046524 
	C17.765436,196.059113 12.826413,196.696915 7.886654,197.045380 
	C6.254840,190.723373 4.643839,184.395828 2.967154,178.085739 
	C2.734908,177.211685 2.178081,176.423874 1.385757,175.798065 
	C1.000000,173.629440 1.000000,171.258896 1.000000,168.444168 
z"/>
<path fill="#0B84EE" opacity="1.000000" stroke="none" 
	d="
M176.733917,147.498199 
	C217.911346,147.036484 258.987030,147.018250 300.531342,147.000000 
	C301.000000,156.354233 301.000000,165.708450 301.000000,175.531342 
	C300.591583,175.943344 300.183197,175.886703 299.221771,175.616364 
	C296.661713,174.935318 294.656128,174.068558 292.647369,174.061020 
	C266.060425,173.961136 239.473053,173.981995 212.885788,173.972672 
	C213.909988,166.570129 214.934204,159.167572 216.064926,150.995102 
	C211.344772,150.995102 206.780472,150.995193 202.216171,150.995102 
	C194.883301,150.994949 187.549988,150.950104 180.217804,151.021347 
	C177.988373,151.043015 176.123169,150.960693 176.733917,147.498199 
z"/>
<path fill="#18ACFE" opacity="1.000000" stroke="none" 
	d="
M73.869339,21.959459 
	C89.601387,12.515551 106.370033,5.844779 124.558510,2.930322 
	C125.273766,2.815711 125.898384,2.135375 126.282616,1.359318 
	C142.020889,1.000000 158.041794,1.000000 174.531342,0.999999 
	C175.352768,1.646255 175.641220,2.810713 176.067596,2.863625 
	C189.731537,4.559237 202.513824,9.063079 214.841766,14.978583 
	C218.907120,16.929321 222.825195,19.186922 226.567963,21.796247 
	C224.204346,22.525526 222.083557,22.967812 219.962372,22.969761 
	C176.209503,23.009939 132.456497,23.033026 88.703728,22.954264 
	C83.758347,22.945362 78.814110,22.306307 73.869339,21.959459 
z"/>
<path fill="#0167E2" opacity="1.000000" stroke="none" 
	d="
M123.399994,301.000000 
	C122.258270,300.329102 121.614159,299.253845 120.760239,299.047729 
	C107.138847,295.759735 93.874329,291.463623 81.508469,284.792267 
	C68.943619,278.013580 57.169224,270.090179 47.366653,259.093079 
	C49.154980,258.316101 50.790741,258.022186 52.426830,258.020355 
	C77.228691,257.992737 102.030586,258.003418 126.832474,258.005127 
	C126.905037,271.352356 126.977600,284.699615 126.948578,298.879272 
	C126.898003,300.141113 126.949005,300.570557 127.000000,301.000000 
	C125.933327,301.000000 124.866661,301.000000 123.399994,301.000000 
z"/>
<path fill="#0164E1" opacity="1.000000" stroke="none" 
	d="
M241.049469,271.105408 
	C234.750137,275.392212 228.721588,280.164276 222.093964,283.862885 
	C209.116318,291.105164 195.245300,296.199097 180.600845,299.049866 
	C179.886551,299.188934 179.270813,299.834290 178.804596,300.621948 
	C177.933334,301.000000 176.866653,301.000000 175.399994,301.000000 
	C175.518250,292.777313 176.053040,284.555573 176.541779,276.331146 
	C176.648880,274.528961 176.591888,272.717010 177.205826,270.453735 
	C197.018021,269.998596 216.234970,269.968964 235.451477,270.048279 
	C237.318909,270.056000 239.183548,270.736938 241.049469,271.105408 
z"/>
<path fill="#000000" opacity="1.000000" stroke="none" 
	d="
M127.250000,301.000000 
	C126.949005,300.570557 126.898003,300.141113 127.019073,299.341370 
	C127.646179,299.488953 128.101212,300.006866 128.278107,300.762390 
	C128.000000,301.000000 127.500000,301.000000 127.250000,301.000000 
z"/>
<path fill="#16A1F9" opacity="1.000000" stroke="none" 
	d="
M24.948469,69.895187 
	C29.473225,63.586311 33.853786,57.166454 38.586426,51.017586 
	C40.796940,48.145588 43.688572,45.797832 47.054001,43.097954 
	C116.929634,42.975113 186.022751,42.966785 255.115875,42.958466 
	C261.351593,50.079865 267.587311,57.201263 273.575195,64.806076 
	C271.382721,65.526314 269.438965,65.960190 267.493286,65.968956 
	C251.273605,66.042000 235.053558,66.036743 218.833618,66.055130 
	C217.900635,64.738808 217.104797,62.406719 216.013977,62.259441 
	C201.066040,60.241257 186.084763,58.198830 170.990265,60.942471 
	C161.853851,62.603149 153.648987,66.350136 145.482773,72.054184 
	C107.904015,72.058716 71.151932,72.080330 34.400738,71.908722 
	C31.246916,71.893997 28.099085,70.596695 24.948469,69.895187 
z"/>
<path fill="#1298F6" opacity="1.000000" stroke="none" 
	d="
M24.627441,70.038239 
	C28.099085,70.596695 31.246916,71.893997 34.400738,71.908722 
	C71.151932,72.080330 107.904015,72.058716 145.177109,72.147598 
	C135.565598,80.547737 130.857986,91.865173 127.985703,104.631516 
	C88.184883,104.997360 48.510372,104.990616 8.359612,104.971817 
	C11.590297,92.532326 17.066618,80.940430 24.627441,70.038239 
z"/>
<path fill="#0777E9" opacity="1.000000" stroke="none" 
	d="
M7.932451,197.435211 
	C12.826413,196.696915 17.765436,196.059113 22.706051,196.046524 
	C57.109669,195.958893 91.513618,196.000916 126.375069,196.002502 
	C126.881737,206.027863 126.930794,216.052094 126.448685,226.538849 
	C91.000519,226.998856 56.083523,226.996323 21.166529,226.993790 
	C16.770435,217.270874 12.374342,207.547943 7.932451,197.435211 
z"/>
<path fill="#046FE5" opacity="1.000000" stroke="none" 
	d="
M21.199245,227.339630 
	C56.083523,226.996323 91.000519,226.998856 126.375168,227.002594 
	C126.882111,237.028336 126.931404,247.052887 126.906586,257.541260 
	C102.030586,258.003418 77.228691,257.992737 52.426830,258.020355 
	C50.790741,258.022186 49.154980,258.316101 47.233376,258.788330 
	C36.451706,250.205063 28.411936,239.297150 21.199245,227.339630 
z"/>
<path fill="#0778E9" opacity="1.000000" stroke="none" 
	d="
M294.832581,193.991730 
	C292.337616,201.036774 289.885773,208.097580 287.319580,215.116592 
	C286.612488,217.050690 285.564392,218.860123 284.124634,220.594360 
	C281.199860,219.974625 278.824371,219.069702 276.446320,219.062958 
	C243.244385,218.968796 210.042099,218.997375 176.839890,218.996063 
	C176.839890,210.528778 176.839890,202.061478 176.839890,192.934830 
	C187.520294,192.934830 198.136719,192.934830 209.605606,193.055573 
	C212.397537,193.450256 214.336548,193.958969 216.276520,193.962723 
	C242.461807,194.013428 268.647217,193.993881 294.832581,193.991730 
z"/>
<path fill="#1093F4" opacity="1.000000" stroke="none" 
	d="
M297.891510,118.598129 
	C257.862427,118.997353 217.891769,118.998581 177.451080,118.999634 
	C176.984528,108.211784 183.178558,101.780449 194.493088,101.033340 
	C198.447723,100.772202 202.427155,100.867531 206.395538,100.838364 
	C210.190033,100.810471 213.984909,100.832336 218.640549,100.832336 
	C218.640549,97.685905 218.640549,94.783905 219.221802,91.439903 
	C240.485519,90.998604 261.168121,91.029129 281.850342,90.954254 
	C283.938049,90.946701 286.023499,90.302574 288.109985,89.953857 
	C291.072021,98.121529 294.048615,106.283981 296.980194,114.462555 
	C297.412720,115.669250 297.632019,116.952370 297.891510,118.598129 
z"/>
<path fill="#0572E6" opacity="1.000000" stroke="none" 
	d="
M176.729553,219.454437 
	C210.042099,218.997375 243.244385,218.968796 276.446320,219.062958 
	C278.824371,219.069702 281.199860,219.974625 283.810242,220.777695 
	C278.978088,228.943710 273.915253,236.795944 268.842865,244.641983 
	C268.143890,245.723145 267.397430,246.773605 266.288055,247.607224 
	C263.546051,246.584106 261.192993,245.117203 258.831268,245.103119 
	C231.501648,244.940170 204.170731,244.996933 176.840149,244.995392 
	C176.766510,236.634537 176.692871,228.273666 176.729553,219.454437 
z"/>
<path fill="#036BE3" opacity="1.000000" stroke="none" 
	d="
M176.728180,245.453461 
	C204.170731,244.996933 231.501648,244.940170 258.831268,245.103119 
	C261.192993,245.117203 263.546051,246.584106 265.975037,247.763428 
	C257.947449,255.766022 249.848007,263.381348 241.399017,271.051056 
	C239.183548,270.736938 237.318909,270.056000 235.451477,270.048279 
	C216.234970,269.968964 197.018021,269.998596 177.320709,269.996094 
	C176.765533,261.966705 176.690872,253.939133 176.728180,245.453461 
z"/>
<path fill="#0F81EC" opacity="1.000000" stroke="none" 
	d="
M295.007202,193.646088 
	C268.647217,193.993881 242.461807,194.013428 216.276520,193.962723 
	C214.336548,193.958969 212.397537,193.450256 210.048599,192.999802 
	C210.577682,186.750641 211.516235,180.677979 212.670288,174.289001 
	C239.473053,173.981995 266.060425,173.961136 292.647369,174.061020 
	C294.656128,174.068558 296.661713,174.935318 298.861664,175.759644 
	C297.763672,181.844589 296.472748,187.572525 295.007202,193.646088 
z"/>
<path fill="#129BF7" opacity="1.000000" stroke="none" 
	d="
M288.054230,89.587494 
	C286.023499,90.302574 283.938049,90.946701 281.850342,90.954254 
	C261.168121,91.029129 240.485519,90.998604 219.321762,90.995972 
	C218.774139,82.985680 218.707794,74.977333 218.737518,66.512054 
	C235.053558,66.036743 251.273605,66.042000 267.493286,65.968956 
	C269.438965,65.960190 271.382721,65.526314 273.719238,65.122299 
	C278.740265,73.043785 283.369354,81.132462 288.054230,89.587494 
z"/>
<path fill="#16A7FC" opacity="1.000000" stroke="none" 
	d="
M254.977997,42.648804 
	C186.022751,42.966785 116.929634,42.975113 47.360352,42.971024 
	C55.668056,36.052044 64.451920,29.145485 73.552559,22.099192 
	C78.814110,22.306307 83.758347,22.945362 88.703728,22.954264 
	C132.456497,23.033026 176.209503,23.009939 219.962372,22.969761 
	C222.083557,22.967812 224.204346,22.525526 226.716385,22.119589 
	C233.060104,25.787386 239.157990,29.420761 244.912140,33.534882 
	C248.490509,36.093342 251.548538,39.379555 254.977997,42.648804 
z"/>
</svg>